<?xml version="1.0" standalone="no"?>
<!DOCTYPE svg PUBLIC "-//W3C//DTD SVG 20010904//EN"
 "http://www.w3.org/TR/2001/REC-SVG-20010904/DTD/svg10.dtd">
<svg version="1.0" xmlns="http://www.w3.org/2000/svg"
 width="128.000000pt" height="128.000000pt" viewBox="0 0 128.000000 128.000000"
 preserveAspectRatio="xMidYMid meet">
<metadata>
Created by potrace 1.13, written by Peter Selinger 2001-2015
</metadata>
<g transform="translate(0.000000,128.000000) scale(0.100000,-0.100000)"
fill="#000000" stroke="none">
<path d="M530 1264 c-232 -45 -417 -210 -496 -444 -27 -78 -27 -282 0 -360 72
-211 215 -354 426 -426 78 -27 282 -27 360 0 211 72 354 215 426 426 27 78 27
282 0 360 -70 208 -209 349 -413 421 -57 21 -243 34 -303 23z m243 -89 c65
-17 147 -56 166 -79 11 -13 9 -14 -16 -7 -35 10 -53 4 -53 -18 0 -9 -5 -22
-10 -27 -7 -7 -4 -19 10 -37 28 -36 6 -47 -28 -14 l-25 26 -14 -26 c-17 -32
-16 -43 1 -43 8 0 18 -9 21 -20 3 -11 12 -20 18 -21 7 -1 1 -4 -13 -8 -30 -8
-39 -51 -16 -74 14 -13 10 -20 -30 -62 -24 -26 -46 -57 -49 -69 -18 -91 -7
-136 45 -172 25 -17 38 -19 82 -14 29 4 54 3 56 -1 2 -5 10 -9 17 -9 9 0 14
-12 14 -32 0 -18 0 -48 1 -66 1 -18 -4 -39 -10 -47 -6 -7 -17 -39 -26 -71 -8
-33 -19 -63 -25 -69 -14 -14 -11 -25 9 -25 25 0 76 33 121 80 48 50 58 51 26
4 -47 -69 -161 -140 -272 -169 -72 -19 -214 -21 -210 -3 1 7 -4 12 -12 10 -7
-2 -22 5 -32 14 -16 14 -19 28 -15 72 2 37 9 58 20 64 10 6 16 22 16 46 0 21
7 48 16 60 8 12 13 30 9 41 -6 20 -45 41 -75 41 -11 0 -37 16 -58 35 -21 19
-50 39 -64 44 -20 7 -25 15 -21 30 3 12 1 21 -6 21 -6 0 -11 16 -11 35 0 33
-3 36 -45 47 -25 7 -45 18 -45 26 0 7 -5 10 -10 7 -6 -4 -17 -1 -25 5 -18 15
-72 4 -85 -18 -7 -13 -9 -10 -9 18 0 42 16 65 46 67 18 1 23 -4 23 -23 0 -13
2 -24 4 -24 2 0 11 -3 20 -6 13 -5 15 -1 10 24 -5 27 0 36 47 81 29 28 59 51
65 51 7 0 14 5 16 11 2 5 15 12 28 13 14 2 33 7 43 11 19 8 23 25 6 25 -5 0
-7 5 -3 11 5 8 10 6 16 -5 5 -9 20 -16 34 -16 26 0 26 1 19 59 -7 58 -6 59 23
72 24 10 29 19 28 42 -1 35 12 43 38 24 18 -13 18 -15 1 -40 -33 -50 3 -76 52
-37 14 11 43 24 63 30 33 9 38 14 42 45 5 42 -23 61 -77 52 -21 -3 -45 -1 -55
5 -14 9 -22 9 -35 -2 -18 -15 -29 -18 -90 -23 -22 -2 -49 -7 -60 -11 -11 -4
-8 0 7 8 75 44 244 59 351 31z m-610 -627 c22 -24 27 -39 27 -78 0 -43 5 -55
41 -97 23 -26 52 -54 64 -60 13 -7 32 -27 44 -45 19 -32 96 -112 136 -144 19
-15 19 -15 -5 -8 -59 15 -166 81 -219 135 -89 89 -162 246 -161 349 l1 35 22
-28 c12 -16 34 -42 50 -59z"/>
</g>
</svg>
