<?xml version="1.0" standalone="no"?>
<!DOCTYPE svg PUBLIC "-//W3C//DTD SVG 20010904//EN"
 "http://www.w3.org/TR/2001/REC-SVG-20010904/DTD/svg10.dtd">
<svg version="1.0" xmlns="http://www.w3.org/2000/svg"
 width="43.000000pt" height="44.000000pt" viewBox="0 0 43.000000 44.000000"
 preserveAspectRatio="xMidYMid meet">
<metadata>
Created by potrace 1.13, written by Peter Selinger 2001-2015
</metadata>
<g transform="translate(0.000000,44.000000) scale(0.100000,-0.100000)"
fill="#000000" stroke="none">
<path d="M265 390 c4 -6 23 -19 44 -30 54 -27 69 -76 32 -102 -12 -9 -20 -30
-23 -65 -3 -29 -17 -75 -31 -102 -29 -56 -20 -59 42 -13 96 71 89 238 -13 301
-36 22 -61 28 -51 11z"/>
<path d="M416 170 c-13 -81 -118 -160 -210 -160 -39 0 -124 40 -153 71 -12 13
-29 40 -37 59 -15 35 -15 34 -16 -52 l0 -88 215 0 215 0 0 105 c0 58 -2 105
-4 105 -2 0 -6 -18 -10 -40z"/>
</g>
</svg>
